<svg xmlns="http://www.w3.org/2000/svg" viewBox="0 0 66.17 58.23"><defs><style>.cls-1{opacity:0.15;}.cls-2{fill:none;}.cls-3{fill:#c02222;fill-rule:evenodd;}</style></defs><g id="Layer_2" data-name="Layer 2"><g id="Layer_1-2" data-name="Layer 1"><g class="cls-1"><path class="cls-2"/><path class="cls-3" d="M9.82,23.31A17.38,17.38,0,0,1,31.28,10.62,16.63,16.63,0,0,1,43.73,25.93c-.16,5-.95,6.34-3.8,8.93-2.31,2.1-5.84,2.48-9.75,1.91-8-2.2-10-11-7.47-14.16A5.72,5.72,0,0,1,31.08,22c2.59,2.37,2,4.73,2.37,8.88.44-2.47,1.33-5.07.66-7.56-2.4-8.84-14.93-8.14-17.24,1.45a18.6,18.6,0,0,0-.09,5.16c.57,4,2.94,8.17,5.21,9.91a11.08,11.08,0,0,0,2.1,1.76,18,18,0,0,0,9.15,3c11.66,1.09,21.12-8.71,19.52-22-1-4.59-1.34-7-4.19-11.22C46.25,8,44.44,6.68,41.38,4.26A26.3,26.3,0,0,0,32.63.62C25-1,16.4.63,10.71,5.15S1,15.3.15,23.48c-.21,1.86-.27,7,.28,8.45A26.85,26.85,0,0,0,2,38C2.47,39.14,4,42.42,4.59,43,5,44.31,8.21,48.1,9.22,49.05c.86.82,4.94,4.41,6.25,4.6.5.71,3.29,1.84,4,2.13a26.51,26.51,0,0,0,4.76,1.43c4,.82,7.07.6,11.05.83,3.67.18,29,.39,30.9-.23-4-.63-8.08-1.57-12.1-2.25-5.16-.86-10.31-1.68-15.48-2.45-3.31-.5-7.53-1-10.63-1.72a45.63,45.63,0,0,1-5.72-2.14c-.77-.74-3.55-1.94-6.11-4.65a37.93,37.93,0,0,1-4.41-6.15,19.42,19.42,0,0,0-.82-2c-.24-.65-.45-1.3-.64-1.94a26.4,26.4,0,0,1-.87-5.31,22.94,22.94,0,0,1,.44-5.87Z"/></g></g></g></svg>